HIERARCHY
ROOT Hips
{
	OFFSET 0.00 86.18 0.00
	CHANNELS 6 Xposition Yposition Zposition Yrotation Xrotation Zrotation
	JOINT RightUpLeg
	{
		OFFSET -9.25 0.00 0.00
		CHANNELS 6 Xposition Yposition Zposition Yrotation Xrotation Zrotation
		JOINT RightLeg
		{
			OFFSET 0.00 -42.00 0.00
			CHANNELS 6 Xposition Yposition Zposition Yrotation Xrotation Zrotation
			JOINT RightFoot
			{
				OFFSET 0.00 -42.00 0.00
				CHANNELS 6 Xposition Yposition Zposition Yrotation Xrotation Zrotation
				End Site
				{
					OFFSET 0 -1.14 11.36
				}
			}
		}
	}
	JOINT LeftUpLeg
	{
		OFFSET 9.25 0.00 0.00
		CHANNELS 6 Xposition Yposition Zposition Yrotation Xrotation Zrotation
		JOINT LeftLeg
		{
			OFFSET 0.00 -42.00 0.00
			CHANNELS 6 Xposition Yposition Zposition Yrotation Xrotation Zrotation
			JOINT LeftFoot
			{
				OFFSET 0.00 -42.00 0.00
				CHANNELS 6 Xposition Yposition Zposition Yrotation Xrotation Zrotation
				End Site
				{
					OFFSET 0 -1.14 11.36
				}
			}
		}
	}
	JOINT Spine
	{
		OFFSET 0.00 10.46 0.00
		CHANNELS 6 Xposition Yposition Zposition Yrotation Xrotation Zrotation
		JOINT Spine1
		{
			OFFSET 0.00 9.75 0.00
			CHANNELS 6 Xposition Yposition Zposition Yrotation Xrotation Zrotation
			JOINT Spine2
			{
				OFFSET 0.00 10.15 0.00
				CHANNELS 6 Xposition Yposition Zposition Yrotation Xrotation Zrotation
				JOINT Spine3
				{
					OFFSET 0.00 9.75 0.00
					CHANNELS 6 Xposition Yposition Zposition Yrotation Xrotation Zrotation
			 		JOINT Neck
					{
						OFFSET 0.00 10.42 0.00
						CHANNELS 6 Xposition Yposition Zposition Yrotation Xrotation Zrotation
						JOINT Head
						{
							OFFSET 0.00 9.50 0.00
							CHANNELS 6 Xposition Yposition Zposition Yrotation Xrotation Zrotation
							End Site
							{
								OFFSET 0 16.00 0
							}
						}    
					} 
					JOINT RightShoulder
	 					{
						OFFSET -3.20 6.94 0.00
						CHANNELS 6 Xposition Yposition Zposition Yrotation Xrotation Zrotation
						JOINT RightArm
						{
							OFFSET -16.00 0.00 0.00
							CHANNELS 6 Xposition Yposition Zposition Yrotation Xrotation Zrotation
							JOINT RightForeArm
							{
								OFFSET -26.50 0.00 0.00
								CHANNELS 6 Xposition Yposition Zposition Yrotation Xrotation Zrotation
								JOINT RightHand
								{
									OFFSET -26.00 0.00 0.00
									CHANNELS 6 Xposition Yposition Zposition Yrotation Xrotation Zrotation
									End Site
									{
										OFFSET -17.50 0 0
									}
								}
							}
						}	
					}
					JOINT LeftShoulder
					{
						OFFSET 3.20 6.94 0.00
						CHANNELS 6 Xposition Yposition Zposition Yrotation Xrotation Zrotation
						JOINT LeftArm
						{
							OFFSET 16.00 0.00 0.00
							CHANNELS 6 Xposition Yposition Zposition Yrotation Xrotation Zrotation
							JOINT LeftForeArm
							{
								OFFSET 26.50 0.00 0.00
								CHANNELS 6 Xposition Yposition Zposition Yrotation Xrotation Zrotation
								JOINT LeftHand
								{
									OFFSET 26.00 0.00 0.00
									CHANNELS 6 Xposition Yposition Zposition Yrotation Xrotation Zrotation
									End Site
									{
										OFFSET 17.50 0 0
									}
								}
							}
						}
					}     			
				}
			}
		} 
	} 
}
MOTION
Frames: 12
Frame Time: 0.010
-9.49 91.25 16.92 135.98 -10.10 -4.87 -9.12 0.07 -0.00 -10.65 18.39 6.82 0.09 -42.00 -0.01 -4.32 0.20 3.75 -1.16 -42.01 0.04 -3.87 -7.51 -3.19 9.42 -0.04 -0.10 -7.77 -5.45 10.37 0.03 -41.95 0.04 -8.22 41.54 1.83 1.11 -42.52 -0.84 -8.89 -4.43 -8.46 0.04 10.44 0.10 5.71 15.14 2.75 0.07 9.73 0.10 1.44 3.72 0.54 0.08 10.15 0.02 2.48 5.96 0.95 0.05 9.75 0.08 0.39 -0.81 -0.07 0.06 10.42 0.14 0.39 -0.81 -0.07 -0.03 9.47 0.13 7.52 -14.24 -2.22 -3.13 7.01 0.17 6.99 -7.64 9.21 -16.12 0.13 0.15 72.78 -30.39 28.79 -26.47 0.23 -0.15 117.38 0.17 -26.19 -25.99 0.06 0.06 -1.04 -36.65 44.76 3.30 6.92 0.03 -15.78 -10.37 1.73 15.92 -0.10 -0.12 -64.84 -35.40 -39.11 26.55 -0.15 -0.00 -102.49 10.99 37.45 26.01 -0.03 -0.13 5.81 -55.75 -61.63 
-9.19 91.19 17.02 135.87 -10.12 -4.73 -9.13 0.07 0.06 -10.00 18.56 7.02 0.07 -42.00 0.02 -4.53 0.07 3.76 -1.10 -41.99 0.06 -4.16 -7.68 -3.34 9.42 -0.05 -0.12 -8.12 -6.61 10.04 0.03 -41.96 0.03 -7.31 43.53 2.05 1.05 -42.48 -0.76 -8.01 -3.41 -9.13 0.06 10.44 0.10 5.73 14.99 2.71 0.08 9.73 0.10 1.45 3.68 0.53 0.10 10.15 0.03 2.48 5.90 0.93 0.06 9.75 0.09 0.40 -0.80 -0.08 0.06 10.41 0.14 0.40 -0.80 -0.08 -0.03 9.46 0.14 7.73 -14.08 -2.33 -3.13 7.01 0.17 7.19 -7.58 9.08 -16.10 0.11 0.14 72.83 -30.32 28.75 -26.48 0.22 -0.14 117.43 0.08 -26.19 -25.99 0.06 0.05 -1.00 -36.63 44.72 3.30 6.91 0.02 -15.71 -10.42 1.61 15.92 -0.11 -0.14 -64.72 -35.40 -39.10 26.56 -0.16 -0.01 -102.61 10.94 37.46 26.01 -0.03 -0.15 5.81 -55.64 -61.56 
-8.85 91.12 17.11 135.70 -10.17 -4.60 -9.13 0.08 0.09 -9.42 18.73 7.16 0.08 -42.01 0.02 -4.72 0.03 3.77 -1.00 -41.99 0.06 -4.31 -7.87 -3.40 9.44 -0.06 -0.15 -8.34 -7.74 9.72 0.04 -41.97 0.03 -5.83 45.54 2.65 0.97 -42.42 -0.67 -7.43 -2.67 -9.43 0.09 10.44 0.11 5.93 14.88 2.64 0.09 9.73 0.10 1.49 3.66 0.51 0.09 10.15 0.03 2.55 5.85 0.90 0.06 9.75 0.09 0.40 -0.79 -0.08 0.07 10.41 0.15 0.40 -0.79 -0.08 -0.03 9.46 0.14 7.73 -13.94 -2.28 -3.13 7.01 0.17 7.07 -7.67 9.20 -16.11 0.11 0.14 73.09 -30.11 28.79 -26.48 0.22 -0.15 117.41 0.11 -26.23 -25.99 0.07 0.05 -0.94 -36.51 44.67 3.31 6.91 0.01 -15.85 -10.51 1.66 15.92 -0.13 -0.16 -64.61 -35.41 -39.09 26.56 -0.17 -0.02 -102.58 10.90 37.50 26.02 -0.03 -0.15 5.67 -55.65 -61.52 
-8.52 91.06 17.16 135.74 -10.18 -4.66 -9.12 0.07 0.09 -9.01 18.94 7.41 0.09 -42.00 0.06 -4.95 0.01 3.77 -0.89 -41.99 0.10 -4.48 -8.11 -3.42 9.44 -0.05 -0.14 -8.81 -8.82 9.59 0.04 -41.99 0.02 -4.02 47.46 3.49 0.90 -42.38 -0.60 -7.10 -2.38 -9.28 0.08 10.44 0.11 5.86 14.71 2.72 0.10 9.72 0.10 1.48 3.61 0.53 0.10 10.15 0.03 2.53 5.78 0.93 0.07 9.74 0.09 0.41 -0.78 -0.08 0.07 10.41 0.15 0.41 -0.78 -0.08 -0.02 9.46 0.14 7.92 -13.69 -2.36 -3.13 7.02 0.18 7.14 -7.68 9.17 -16.12 0.11 0.15 73.32 -29.89 28.83 -26.49 0.21 -0.15 117.35 0.22 -26.35 -25.99 0.06 0.05 -0.92 -36.40 44.67 3.31 6.91 0.01 -15.62 -10.52 1.45 15.93 -0.11 -0.14 -64.65 -35.38 -39.12 26.58 -0.15 -0.01 -102.77 10.98 37.48 26.03 -0.03 -0.19 5.67 -55.61 -61.51 
-8.19 91.00 17.17 135.48 -10.25 -4.52 -9.07 0.09 0.14 -8.38 19.18 7.40 0.13 -42.00 0.07 -5.27 -0.11 3.93 -0.80 -41.99 0.10 -4.56 -8.27 -3.49 9.45 -0.06 -0.17 -8.97 -9.79 9.33 0.05 -42.02 0.02 -1.87 49.21 4.58 0.83 -42.36 -0.53 -6.89 -2.55 -8.84 0.10 10.44 0.11 6.07 14.62 2.65 0.10 9.72 0.09 1.53 3.59 0.51 0.10 10.15 0.03 2.61 5.74 0.90 0.07 9.74 0.09 0.41 -0.77 -0.08 0.08 10.42 0.15 0.41 -0.78 -0.08 -0.02 9.46 0.15 7.89 -13.58 -2.30 -3.12 7.02 0.18 6.99 -7.77 9.27 -16.11 0.11 0.15 73.54 -29.68 28.89 -26.49 0.21 -0.16 117.32 0.24 -26.39 -26.00 0.07 0.05 -0.81 -36.27 44.61 3.31 6.91 0.02 -15.60 -10.55 1.41 15.93 -0.10 -0.13 -64.68 -35.35 -39.15 26.61 -0.12 -0.01 -102.96 11.04 37.44 26.03 -0.03 -0.22 5.73 -55.51 -61.44 
-7.87 90.95 17.15 135.24 -10.30 -4.37 -9.07 0.10 0.16 -8.06 19.43 7.40 0.11 -42.00 0.08 -5.32 -0.24 3.97 -0.72 -41.99 0.09 -4.64 -8.41 -3.56 9.45 -0.07 -0.18 -9.20 -10.69 9.07 0.06 -42.05 0.03 0.37 50.70 5.71 0.75 -42.34 -0.46 -6.70 -2.94 -8.34 0.12 10.44 0.11 6.24 14.52 2.58 0.11 9.72 0.09 1.57 3.56 0.49 0.10 10.15 0.02 2.67 5.70 0.87 0.07 9.74 0.09 0.41 -0.78 -0.07 0.08 10.42 0.15 0.41 -0.78 -0.08 -0.02 9.46 0.16 7.85 -13.61 -2.26 -3.12 7.02 0.19 6.86 -7.84 9.36 -16.11 0.10 0.16 73.74 -29.48 28.95 -26.49 0.22 -0.16 117.29 0.29 -26.42 -26.01 0.09 0.05 -0.71 -36.08 44.61 3.31 6.92 0.02 -15.56 -10.55 1.37 15.94 -0.09 -0.12 -64.70 -35.33 -39.18 26.63 -0.10 -0.01 -103.13 11.10 37.39 26.03 -0.02 -0.23 5.77 -55.41 -61.33 
-7.55 90.91 17.11 135.17 -10.31 -4.35 -9.04 0.10 0.15 -7.87 19.64 7.39 0.14 -42.00 0.06 -5.44 -0.35 4.10 -0.65 -41.99 0.08 -4.64 -8.53 -3.62 9.46 -0.06 -0.17 -9.67 -11.52 8.96 0.07 -42.08 0.02 2.49 51.93 6.67 0.69 -42.31 -0.41 -6.46 -3.34 -7.80 0.11 10.44 0.11 6.29 14.41 2.57 0.11 9.72 0.08 1.58 3.53 0.49 0.09 10.15 0.02 2.69 5.65 0.86 0.07 9.74 0.08 0.41 -0.77 -0.07 0.09 10.42 0.13 0.42 -0.77 -0.07 -0.01 9.47 0.15 7.91 -13.53 -2.25 -3.12 7.02 0.17 6.89 -7.81 9.36 -16.09 0.10 0.15 73.72 -29.46 28.94 -26.50 0.22 -0.15 117.34 0.22 -26.31 -26.01 0.11 0.04 -0.64 -36.09 44.51 3.31 6.92 0.02 -15.50 -10.54 1.32 15.95 -0.08 -0.11 -64.69 -35.30 -39.20 26.65 -0.08 -0.01 -103.31 11.14 37.31 26.03 -0.00 -0.25 5.77 -55.31 -61.17 
-7.24 90.87 17.05 135.07 -10.32 -4.29 -9.01 0.10 0.12 -7.82 19.81 7.32 0.17 -42.00 0.04 -5.44 -0.38 4.17 -0.58 -41.99 0.07 -4.59 -8.65 -3.66 9.45 -0.05 -0.16 -10.12 -12.27 8.86 0.10 -42.10 0.02 4.43 52.81 7.37 0.65 -42.27 -0.38 -6.20 -3.66 -7.24 0.11 10.44 0.10 6.32 14.30 2.55 0.11 9.73 0.07 1.59 3.51 0.48 0.09 10.15 0.02 2.70 5.61 0.85 0.07 9.74 0.08 0.42 -0.78 -0.07 0.09 10.42 0.12 0.42 -0.78 -0.07 -0.01 9.47 0.17 7.95 -13.66 -2.25 -3.12 7.02 0.18 6.77 -7.83 9.42 -16.09 0.09 0.15 73.94 -29.33 28.98 -26.51 0.22 -0.15 117.30 0.22 -26.31 -26.02 0.13 0.04 -0.57 -35.96 44.53 3.31 6.92 0.01 -15.43 -10.52 1.29 15.95 -0.08 -0.10 -64.68 -35.27 -39.19 26.63 -0.08 -0.01 -103.28 11.14 37.33 26.02 -0.00 -0.23 5.72 -55.35 -61.10 
-6.92 90.84 16.97 134.90 -10.33 -4.19 -8.99 0.11 0.08 -7.82 19.93 7.18 0.18 -42.00 -0.01 -5.35 -0.37 4.26 -0.52 -41.99 0.06 -4.57 -8.77 -3.72 9.45 -0.05 -0.14 -10.57 -12.92 8.74 0.19 -42.09 0.01 6.17 53.32 7.63 0.68 -42.22 -0.36 -5.87 -3.82 -6.56 0.10 10.44 0.09 6.37 14.21 2.50 0.11 9.73 0.06 1.60 3.48 0.47 0.09 10.15 0.02 2.72 5.57 0.83 0.06 9.74 0.07 0.42 -0.78 -0.07 0.09 10.42 0.11 0.42 -0.78 -0.07 -0.01 9.47 0.16 8.07 -13.64 -2.28 -3.12 7.02 0.18 6.66 -7.86 9.47 -16.09 0.09 0.16 74.16 -29.21 29.04 -26.51 0.21 -0.15 117.22 0.27 -26.38 -26.03 0.13 0.04 -0.56 -35.88 44.62 3.30 6.92 0.01 -15.36 -10.52 1.25 15.95 -0.09 -0.10 -64.69 -35.25 -39.09 26.65 -0.07 -0.03 -103.40 11.09 37.28 26.03 0.01 -0.25 5.71 -55.32 -60.97 
-6.61 90.81 16.89 134.69 -10.32 -4.06 -8.98 0.11 0.04 -7.86 20.03 7.04 0.19 -42.00 -0.03 -5.17 -0.28 4.32 -0.47 -41.99 0.06 -4.60 -8.95 -3.75 9.44 -0.04 -0.12 -10.99 -13.51 8.60 0.19 -42.10 0.02 7.47 53.59 7.75 0.63 -42.18 -0.35 -5.41 -3.98 -6.18 0.10 10.44 0.09 6.43 14.11 2.43 0.11 9.73 0.05 1.61 3.46 0.45 0.09 10.15 0.01 2.74 5.54 0.81 0.06 9.74 0.07 0.43 -0.78 -0.08 0.10 10.42 0.10 0.43 -0.78 -0.08 -0.00 9.47 0.15 8.20 -13.63 -2.31 -3.12 7.01 0.17 6.68 -7.85 9.48 -16.09 0.08 0.15 74.29 -29.16 29.06 -26.51 0.21 -0.16 117.13 0.29 -26.39 -26.02 0.13 0.04 -0.54 -35.87 44.58 3.30 6.92 0.01 -15.29 -10.53 1.22 15.95 -0.10 -0.11 -64.68 -35.24 -39.01 26.67 -0.07 -0.03 -103.55 11.04 37.23 26.05 0.01 -0.29 5.68 -55.33 -60.92 
-6.31 90.79 16.81 134.44 -10.30 -3.92 -8.99 0.11 0.04 -7.95 20.18 6.90 0.18 -42.00 -0.03 -4.97 -0.28 4.32 -0.42 -41.99 0.05 -4.56 -9.08 -3.78 9.44 -0.04 -0.10 -11.36 -14.10 8.45 0.19 -42.11 0.03 8.46 53.62 7.60 0.58 -42.15 -0.33 -4.92 -4.10 -5.84 0.09 10.45 0.08 6.49 14.02 2.36 0.11 9.73 0.04 1.62 3.43 0.43 0.09 10.15 0.02 2.76 5.50 0.77 0.07 9.75 0.07 0.43 -0.78 -0.08 0.12 10.42 0.09 0.44 -0.78 -0.08 0.01 9.47 0.15 8.32 -13.66 -2.33 -3.11 7.01 0.16 6.71 -7.82 9.49 -16.09 0.07 0.14 74.40 -29.13 29.05 -26.51 0.20 -0.16 117.05 0.29 -26.39 -26.02 0.14 0.04 -0.48 -35.87 44.53 3.31 6.92 0.01 -15.22 -10.51 1.19 15.95 -0.09 -0.10 -64.60 -35.24 -39.04 26.69 -0.06 -0.02 -103.75 11.07 37.16 26.04 0.01 -0.30 5.80 -55.26 -60.87 
-6.01 90.77 16.72 134.17 -10.27 -3.79 -8.99 0.11 0.01 -7.98 20.22 6.77 0.20 -42.00 -0.05 -4.77 -0.13 4.28 -0.36 -41.99 0.05 -4.54 -9.26 -3.73 9.44 -0.03 -0.09 -11.69 -14.64 8.29 0.18 -42.12 0.03 9.25 53.41 7.30 0.53 -42.12 -0.32 -4.48 -4.18 -5.54 0.09 10.45 0.07 6.55 13.94 2.28 0.12 9.73 0.04 1.64 3.41 0.42 0.10 10.15 0.02 2.77 5.47 0.74 0.08 9.75 0.07 0.44 -0.78 -0.07 0.14 10.42 0.09 0.44 -0.78 -0.07 0.02 9.47 0.14 8.45 -13.67 -2.33 -3.10 7.00 0.15 6.75 -7.76 9.48 -16.07 0.07 0.13 74.41 -29.18 29.07 -26.52 0.20 -0.16 117.03 0.27 -26.28 -26.02 0.14 0.04 -0.40 -35.85 44.42 3.32 6.92 0.01 -15.19 -10.56 1.20 15.96 -0.10 -0.11 -64.52 -35.26 -39.03 26.70 -0.07 -0.02 -103.86 11.03 37.16 26.05 -0.00 -0.33 5.84 -55.23 -60.88 
